<?xml version="1.0" encoding="utf-8"?>
<!-- Generator: Adobe Illustrator 26.0.2, SVG Export Plug-In . SVG Version: 6.00 Build 0)  -->
<svg version="1.1" id="Слой_1" xmlns="http://www.w3.org/2000/svg" xmlns:xlink="http://www.w3.org/1999/xlink" x="0px" y="0px"
	 viewBox="0 0 497 91.4" style="enable-background:new 0 0 497 91.4;" xml:space="preserve">
<style type="text/css">
	.st0{fill:#FFFFFF;}
	.st1{fill:#E6007E;}
	.st2{fill:none;}
</style>
<g>
	<g>
		<path class="st0" d="M3.2,77.4V10h9.5l21.6,34.1c5,7.9,8.9,15,12.1,21.9l0.2-0.1c-0.8-9-1-17.2-1-27.7V10h8.2v67.4H45L23.6,43.2
			C18.9,35.7,14.4,28,11,20.7l-0.3,0.1c0.5,8.5,0.7,16.6,0.7,27.8v28.8C11.4,77.4,3.2,77.4,3.2,77.4z"/>
		<path class="st0" d="M56.8,80.4H43.3L21.1,44.8c-2.6-4.1-4.9-7.9-6.8-11.4c0.1,4.5,0.2,9.5,0.2,15.2v31.8H0.2V7h14.1l22.5,35.5
			c2.2,3.4,4.1,6.7,6,10c-0.2-4.6-0.2-9.2-0.2-14.2V7h14.2V80.4z M46.7,74.4h4.1V13h-2.2v25.2c0,9.8,0.2,18.2,1,27.4l0.2,2L45,70.1
			l-1.3-2.8c-3.2-6.9-7.1-13.9-11.9-21.6L11.1,13H6.2v61.4h2.2V48.6c0-11.2-0.2-19.2-0.7-27.6l-0.1-2.3l5-1.7l1.1,2.4
			c2.9,6.2,6.9,13.3,12.4,22.2L46.7,74.4z"/>
	</g>
	<g>
		<path class="st0" d="M103.9,45.8H77.7v24.3h29.2v7.3H69V10h36.4v7.3H77.7v21.3h26.2L103.9,45.8L103.9,45.8z"/>
		<path class="st0" d="M109.9,80.4H66V7h42.4v13.3H80.7v15.3h26.2v13.2H80.7v18.3h29.2V80.4z M72,74.4h31.9v-1.3H74.7V42.8h26.2
			v-1.2H74.7V14.3h27.7V13H72V74.4z"/>
	</g>
	<g>
		<path class="st0" d="M130.1,77.4L113,10h9.2l8,34.1c2,8.4,3.8,16.8,5,23.3h0.2c1.1-6.7,3.2-14.7,5.5-23.4l9-34h9.1l8.2,34.2
			c1.9,8,3.7,16,4.7,23.1h0.2c1.4-7.4,3.3-14.9,5.4-23.3l8.9-34h8.9l-19.1,67.4h-9.1l-8.5-35.1c-2.1-8.6-3.5-15.2-4.4-22H154
			c-1.2,6.7-2.7,13.3-5.2,22l-9.6,35.1C139.2,77.4,130.1,77.4,130.1,77.4z"/>
		<path class="st0" d="M178.5,80.4h-13.7L155.7,43c-0.7-2.7-1.3-5.3-1.8-7.8c-0.6,2.5-1.4,5.2-2.2,8l-10.2,37.3h-13.7L109.2,7h15.4
			l8.6,36.4c0.8,3.3,1.6,6.7,2.3,9.9c0.8-3.3,1.7-6.7,2.6-10.1L147.6,7h13.8l8.8,36.5c0.7,3,1.4,6.2,2.1,9.2c0.6-2.7,1.3-5.4,2-8.2
			l0.3-1.2L184.1,7h15.2L178.5,80.4z M169.5,74.4h4.5L191.4,13h-2.6l-8.6,33c-2,8-3.7,14.9-5.1,21.9l-0.5,2.4h-5.3l-0.4-2.6
			c-1-7-2.8-15.1-4.6-22.8L156.7,13h-4.4l-8.4,31.8c-2.1,8.1-4.3,16.4-5.4,23.1l-0.4,2.5h-5.2l-0.4-2.5c-1.2-6.5-3-14.9-5-23.2
			L119.9,13h-3l15.6,61.4h4.5l9-32.9c2.3-8.1,3.9-14.6,5.1-21.7l0.4-2.5h5.3l0.3,2.6c0.9,7.1,2.4,13.8,4.3,21.7L169.5,74.4z"/>
	</g>
	<g>
		<path class="st1" d="M236.2,77.4l-22-67.4h9.4l10.5,33.2c2.9,9.1,5.4,17.3,7.2,25.2h0.2c1.9-7.8,4.7-16.3,7.7-25.1L260.5,10h9.3
			l-24.1,67.4C245.7,77.4,236.2,77.4,236.2,77.4z"/>
		<path class="st1" d="M247.9,80.4H234L210,7h15.7l11.2,35.3c1.7,5.4,3.2,10.3,4.5,14.9c1.6-5.1,3.3-10.2,4.9-14.9L258.4,7h15.7
			L247.9,80.4z M238.3,74.4h5.3l22-61.4h-2.9L252,44.3c-2.7,7.8-5.7,16.8-7.6,24.8l-0.6,2.3h-4.9l-0.5-2.3c-1.7-7.5-4.1-15.4-7.1-25
			L221.4,13h-3.1L238.3,74.4z"/>
	</g>
	<g>
		<path class="st1" d="M285.9,10v67.4h-8.7V10H285.9z"/>
		<path class="st1" d="M288.9,80.4h-14.7V7h14.7V80.4z M280.2,74.4h2.7V13h-2.7V74.4z"/>
	</g>
	<g>
		<path class="st1" d="M299.9,66.8c3.9,2.4,9.6,4.4,15.6,4.4c8.9,0,14.1-4.7,14.1-11.5c0-6.3-3.6-9.9-12.7-13.4
			c-11-3.9-17.8-9.6-17.8-19.1c0-10.5,8.7-18.3,21.8-18.3c6.9,0,11.9,1.6,14.9,3.3l-2.4,7.1c-2.2-1.2-6.7-3.2-12.8-3.2
			c-9.2,0-12.7,5.5-12.7,10.1c0,6.3,4.1,9.4,13.4,13c11.4,4.4,17.2,9.9,17.2,19.8c0,10.4-7.7,19.4-23.6,19.4
			c-6.5,0-13.6-1.9-17.2-4.3L299.9,66.8z"/>
		<path class="st1" d="M314.9,81.4c-6.9,0-14.6-2-18.9-4.8l-1.9-1.2l4-13.2l3.3,2c4,2.5,9.3,4,14,4c7,0,11.1-3.2,11.1-8.5
			c0-4.2-1.7-7.1-10.8-10.6c-13.2-4.7-19.7-11.9-19.7-21.9c0-12.3,10.4-21.3,24.8-21.3c8.6,0,14,2.3,16.4,3.7l2.2,1.2l-4.3,12.8
			l-3.1-1.7c-2.4-1.3-6.3-2.8-11.4-2.8c-7.2,0-9.7,3.8-9.7,7.1c0,3.9,1.7,6.4,11.5,10.2c9.5,3.7,19.1,9.2,19.1,22.6
			c0,6.2-2.4,11.8-6.8,15.8C329.9,79.1,323.1,81.4,314.9,81.4z M301.2,72.6c3.2,1.5,8.4,2.8,13.6,2.8c15.2,0,20.6-8.5,20.6-16.4
			c0-8-4.3-12.8-15.3-17c-9.7-3.8-15.3-7.5-15.3-15.8c0-6.3,4.9-13.1,15.7-13.1c4.5,0,8.2,0.9,11,2.1l0.5-1.4
			c-2.3-0.9-6-1.9-11.2-1.9c-11.1,0-18.8,6.3-18.8,15.3c0,7.4,4.9,12.4,15.8,16.3c7.7,3,14.7,6.9,14.7,16.2
			c0,8.7-6.9,14.5-17.1,14.5c-4.6,0-9.5-1.1-13.8-3L301.2,72.6z"/>
	</g>
	<g>
		<path class="st1" d="M359.1,10v67.4h-8.7V10H359.1z"/>
		<path class="st1" d="M362.1,80.4h-14.7V7h14.7V80.4z M353.4,74.4h2.7V13h-2.7V74.4z"/>
	</g>
	<g>
		<path class="st1" d="M431.9,43c0,23.2-14.1,35.5-31.3,35.5c-17.8,0-30.3-13.8-30.3-34.2c0-21.4,13.3-35.4,31.3-35.4
			C420,8.9,431.9,23,431.9,43z M379.6,44.1c0,14.4,7.8,27.3,21.5,27.3c13.8,0,21.6-12.7,21.6-28c0-13.4-7-27.4-21.5-27.4
			C386.8,16,379.6,29.3,379.6,44.1z"/>
		<path class="st1" d="M400.6,81.5c-19.6,0-33.3-15.3-33.3-37.2c0-22.6,14.1-38.4,34.3-38.4c19.6,0,33.3,15.3,33.3,37.1
			C434.9,66,421.1,81.5,400.6,81.5z M401.6,11.9c-16.7,0-28.3,13.3-28.3,32.4c0,18.7,11,31.2,27.3,31.2c17.2,0,28.3-12.8,28.3-32.5
			C428.9,24.4,417.9,11.9,401.6,11.9z M401.1,74.4c-16.1,0-24.5-15.2-24.5-30.3c0-8.2,2.1-15.8,5.9-21.3c4.5-6.4,10.9-9.8,18.7-9.8
			c16.1,0,24.5,15.3,24.5,30.4C425.7,61.7,415.6,74.4,401.1,74.4z M401.2,19c-12.9,0-18.6,12.6-18.6,25.1c0,16.7,9.6,24.3,18.5,24.3
			c12.9,0,18.6-12.6,18.6-25C419.7,31.6,413.9,19,401.2,19z"/>
	</g>
	<g>
		<path class="st1" d="M443.2,77.4V10h9.5l21.6,34.1c5,7.9,8.9,15,12.1,21.9l0.2-0.1c-0.8-9-1-17.2-1-27.7V10h8.2v67.4H485
			l-21.4-34.2c-4.7-7.5-9.2-15.2-12.6-22.5l-0.3,0.1c0.5,8.5,0.7,16.6,0.7,27.8v28.8C451.4,77.4,443.2,77.4,443.2,77.4z"/>
		<path class="st1" d="M496.8,80.4h-13.5l-22.3-35.6c-2.6-4.2-4.9-7.9-6.8-11.4c0.1,4.5,0.2,9.5,0.2,15.2v31.8h-14.2V7h14.1
			l22.5,35.5c2.2,3.4,4.1,6.7,6,10c-0.1-4.6-0.2-9.2-0.2-14.2V7h14.2L496.8,80.4L496.8,80.4z M486.7,74.4h4.1V13h-2.2v25.2
			c0,9.8,0.2,18.2,1,27.4l0.2,2l-4.8,2.4l-1.3-2.8c-3.2-6.9-7.1-13.9-11.9-21.6L451,13h-4.9v61.4h2.2V48.6c0-11.2-0.2-19.2-0.7-27.6
			l-0.1-2.3l5-1.7l1.1,2.4c2.9,6.2,6.9,13.3,12.4,22.2L486.7,74.4z"/>
	</g>
</g>
<g>
	<rect x="3" y="33.1" width="491" height="25"/>
	<path d="M497,61.1H0v-31h497V61.1z M6,55.1h485v-19H6V55.1z"/>
</g>
<rect x="163.5" y="-26.9" class="st2" width="300.1" height="68.3"/>
<rect x="127" y="-60.8" class="st2" width="3.2" height="30.6"/>
<g>
	<path class="st0" d="M17.6,38.4v11.1c0,0.8,0,1.8,0.1,2.4h-1.5l-0.1-1.6h0c-0.5,1-1.6,1.8-3.1,1.8c-2.2,0-3.9-1.9-3.9-4.7
		c0-3.1,1.9-4.9,4.1-4.9c1.4,0,2.4,0.7,2.8,1.4h0v-5.5L17.6,38.4L17.6,38.4z M15.9,46.5c0-0.2,0-0.5-0.1-0.7
		c-0.2-1.1-1.2-1.9-2.4-1.9c-1.7,0-2.8,1.5-2.8,3.5c0,1.9,0.9,3.4,2.7,3.4c1.1,0,2.1-0.7,2.5-2c0.1-0.2,0.1-0.5,0.1-0.7L15.9,46.5
		L15.9,46.5z"/>
	<path class="st0" d="M21.3,47.6c0,2.3,1.5,3.2,3.1,3.2c1.2,0,1.9-0.2,2.5-0.5l0.3,1.2c-0.6,0.3-1.6,0.6-3.1,0.6
		c-2.8,0-4.5-1.9-4.5-4.6s1.6-5,4.3-5c3,0,3.8,2.6,3.8,4.3c0,0.3,0,0.6-0.1,0.8C27.8,47.6,21.3,47.6,21.3,47.6z M26.2,46.4
		c0-1.1-0.4-2.7-2.3-2.7c-1.7,0-2.4,1.6-2.6,2.7H26.2z"/>
	<path class="st0" d="M29.7,50.2c0.5,0.3,1.4,0.7,2.2,0.7c1.2,0,1.8-0.6,1.8-1.4c0-0.8-0.5-1.2-1.7-1.7c-1.7-0.6-2.4-1.5-2.4-2.6
		c0-1.5,1.2-2.7,3.2-2.7c0.9,0,1.8,0.3,2.3,0.6l-0.4,1.2c-0.4-0.2-1-0.5-1.9-0.5c-1,0-1.5,0.6-1.5,1.2c0,0.8,0.5,1.1,1.8,1.6
		c1.6,0.6,2.4,1.4,2.4,2.8c0,1.6-1.2,2.8-3.4,2.8c-1,0-1.9-0.2-2.6-0.6L29.7,50.2z"/>
	<path class="st0" d="M39.3,40.1c0,0.6-0.4,1-1.1,1c-0.6,0-1-0.5-1-1c0-0.6,0.4-1,1-1C38.9,39.1,39.3,39.5,39.3,40.1z M37.4,51.9
		v-9.2h1.7v9.2H37.4z"/>
	<path class="st0" d="M49.8,42.7c0,0.7-0.1,1.4-0.1,2.5v5.3c0,2.1-0.4,3.4-1.3,4.2c-0.9,0.8-2.2,1.1-3.3,1.1c-1.1,0-2.3-0.3-3.1-0.8
		l0.4-1.3c0.6,0.4,1.6,0.7,2.7,0.7c1.7,0,3-0.9,3-3.2v-1h0c-0.5,0.8-1.5,1.5-2.9,1.5c-2.3,0-3.9-1.9-3.9-4.5c0-3.1,2-4.9,4.1-4.9
		c1.6,0,2.5,0.8,2.9,1.6h0l0.1-1.4L49.8,42.7L49.8,42.7z M48.1,46.3c0-0.3,0-0.5-0.1-0.8c-0.3-1-1.1-1.8-2.3-1.8
		c-1.6,0-2.7,1.3-2.7,3.5c0,1.8,0.9,3.3,2.7,3.3c1,0,2-0.7,2.3-1.7c0.1-0.3,0.1-0.6,0.1-0.9V46.3z"/>
	<path class="st0" d="M52.4,45.2c0-1,0-1.7-0.1-2.5h1.5l0.1,1.5h0c0.5-0.9,1.5-1.7,3-1.7c1.3,0,3.2,0.8,3.2,3.9v5.5h-1.7v-5.3
		c0-1.5-0.6-2.7-2.1-2.7c-1.1,0-2,0.8-2.2,1.7c-0.1,0.2-0.1,0.5-0.1,0.8v5.5h-1.7V45.2z"/>
	<path class="st0" d="M65.6,52.7l5.3-13.8h1.3l-5.3,13.8H65.6z"/>
	<path class="st0" d="M78.2,42.7l1.8,5.2c0.3,0.8,0.6,1.6,0.7,2.4h0.1c0.2-0.8,0.5-1.5,0.8-2.4l1.8-5.2h1.8l-3.6,9.2h-1.6l-3.5-9.2
		C76.4,42.7,78.2,42.7,78.2,42.7z"/>
	<path class="st0" d="M88.5,40.1c0,0.6-0.4,1-1.1,1c-0.6,0-1-0.5-1-1c0-0.6,0.4-1,1-1C88.1,39.1,88.5,39.5,88.5,40.1z M86.6,51.9
		v-9.2h1.7v9.2H86.6z"/>
	<path class="st0" d="M99,38.4v11.1c0,0.8,0,1.8,0.1,2.4h-1.5l-0.1-1.6h0c-0.5,1-1.6,1.8-3.1,1.8c-2.2,0-3.9-1.9-3.9-4.7
		c0-3.1,1.9-4.9,4.1-4.9c1.4,0,2.4,0.7,2.8,1.4h0v-5.5L99,38.4L99,38.4z M97.4,46.5c0-0.2,0-0.5-0.1-0.7c-0.2-1.1-1.2-1.9-2.4-1.9
		c-1.7,0-2.8,1.5-2.8,3.5c0,1.9,0.9,3.4,2.7,3.4c1.1,0,2.2-0.7,2.4-2c0.1-0.2,0.1-0.5,0.1-0.7L97.4,46.5L97.4,46.5z"/>
	<path class="st0" d="M102.7,47.6c0,2.3,1.5,3.2,3.2,3.2c1.2,0,1.9-0.2,2.5-0.5l0.3,1.2c-0.6,0.3-1.6,0.6-3.1,0.6
		c-2.8,0-4.5-1.9-4.5-4.6s1.6-5,4.3-5c3,0,3.8,2.6,3.8,4.3c0,0.3,0,0.6-0.1,0.8C109.2,47.6,102.7,47.6,102.7,47.6z M107.6,46.4
		c0-1.1-0.4-2.7-2.3-2.7c-1.7,0-2.4,1.6-2.6,2.7H107.6z"/>
	<path class="st0" d="M119.6,47.2c0,3.4-2.4,4.9-4.6,4.9c-2.5,0-4.4-1.8-4.4-4.7c0-3.1,2-4.9,4.6-4.9
		C117.9,42.5,119.6,44.4,119.6,47.2z M112.4,47.3c0,2,1.2,3.5,2.8,3.5c1.6,0,2.8-1.5,2.8-3.6c0-1.6-0.8-3.5-2.8-3.5
		S112.4,45.6,112.4,47.3z"/>
	<path class="st0" d="M126.7,47.6c0,2.3,1.5,3.2,3.1,3.2c1.2,0,1.9-0.2,2.6-0.5l0.3,1.2c-0.6,0.3-1.6,0.6-3.1,0.6
		c-2.8,0-4.5-1.9-4.5-4.6s1.6-5,4.3-5c3,0,3.8,2.6,3.8,4.3c0,0.3,0,0.6-0.1,0.8C133.2,47.6,126.7,47.6,126.7,47.6z M131.6,46.4
		c0-1.1-0.4-2.7-2.3-2.7c-1.7,0-2.4,1.6-2.6,2.7H131.6z"/>
	<path class="st0" d="M143.2,38.4v11.1c0,0.8,0,1.8,0.1,2.4h-1.5l-0.1-1.6h0c-0.5,1-1.6,1.8-3.1,1.8c-2.2,0-3.9-1.9-3.9-4.7
		c0-3.1,1.9-4.9,4.1-4.9c1.4,0,2.4,0.7,2.8,1.4h0v-5.5L143.2,38.4L143.2,38.4z M141.6,46.5c0-0.2,0-0.5-0.1-0.7
		c-0.2-1.1-1.2-1.9-2.4-1.9c-1.7,0-2.8,1.5-2.8,3.5c0,1.9,0.9,3.4,2.7,3.4c1.1,0,2.1-0.7,2.4-2c0.1-0.2,0.1-0.5,0.1-0.7L141.6,46.5
		L141.6,46.5z"/>
	<path class="st0" d="M147.9,40.1c0,0.6-0.4,1-1.1,1c-0.6,0-1-0.5-1-1c0-0.6,0.4-1,1-1C147.5,39.1,147.9,39.5,147.9,40.1z M146,51.9
		v-9.2h1.7v9.2H146z"/>
	<path class="st0" d="M152.5,40.1v2.6h2.4V44h-2.4v5c0,1.1,0.3,1.8,1.2,1.8c0.4,0,0.8-0.1,1-0.1l0.1,1.2c-0.3,0.1-0.8,0.2-1.5,0.2
		c-0.8,0-1.4-0.2-1.8-0.7c-0.5-0.5-0.6-1.3-0.6-2.4v-5h-1.4v-1.3h1.4v-2.2L152.5,40.1z"/>
	<path class="st0" d="M158.6,40.1c0,0.6-0.4,1-1.1,1c-0.6,0-1-0.5-1-1c0-0.6,0.4-1,1-1C158.2,39.1,158.6,39.5,158.6,40.1z
		 M156.8,51.9v-9.2h1.7v9.2H156.8z"/>
	<path class="st0" d="M161.2,45.2c0-1,0-1.7-0.1-2.5h1.5l0.1,1.5h0c0.5-0.9,1.5-1.7,3-1.7c1.3,0,3.2,0.8,3.2,3.9v5.5h-1.7v-5.3
		c0-1.5-0.6-2.7-2.1-2.7c-1.1,0-2,0.8-2.2,1.7c-0.1,0.2-0.1,0.5-0.1,0.8v5.5h-1.7V45.2z"/>
	<path class="st0" d="M179.7,42.7c0,0.7-0.1,1.4-0.1,2.5v5.3c0,2.1-0.4,3.4-1.3,4.2c-0.9,0.8-2.2,1.1-3.3,1.1
		c-1.1,0-2.3-0.3-3.1-0.8l0.4-1.3c0.6,0.4,1.6,0.7,2.7,0.7c1.7,0,3-0.9,3-3.2v-1h0c-0.5,0.8-1.5,1.5-2.9,1.5c-2.3,0-3.9-1.9-3.9-4.5
		c0-3.1,2-4.9,4.1-4.9c1.6,0,2.5,0.8,2.9,1.6h0l0.1-1.4L179.7,42.7L179.7,42.7z M177.9,46.3c0-0.3,0-0.5-0.1-0.8
		c-0.3-1-1.1-1.8-2.3-1.8c-1.6,0-2.7,1.3-2.7,3.5c0,1.8,0.9,3.3,2.7,3.3c1,0,2-0.7,2.3-1.7c0.1-0.3,0.1-0.6,0.1-0.9L177.9,46.3
		L177.9,46.3z"/>
	<path class="st0" d="M185,52.7l5.3-13.8h1.3l-5.3,13.8H185z"/>
	<path class="st0" d="M197.6,42.7l1.8,5.2c0.3,0.8,0.6,1.6,0.7,2.4h0.1c0.2-0.8,0.5-1.5,0.8-2.4l1.8-5.2h1.8l-3.6,9.2h-1.6l-3.5-9.2
		C195.8,42.7,197.6,42.7,197.6,42.7z"/>
	<path class="st0" d="M207.9,40.1c0,0.6-0.4,1-1.1,1c-0.6,0-1-0.5-1-1c0-0.6,0.4-1,1-1C207.5,39.1,207.9,39.5,207.9,40.1z
		 M206.1,51.9v-9.2h1.7v9.2H206.1z"/>
	<path class="st0" d="M218.5,38.4v11.1c0,0.8,0,1.8,0.1,2.4H217l-0.1-1.6h0c-0.5,1-1.6,1.8-3.1,1.8c-2.2,0-3.9-1.9-3.9-4.7
		c0-3.1,1.9-4.9,4.1-4.9c1.4,0,2.4,0.7,2.8,1.4h0v-5.5L218.5,38.4L218.5,38.4z M216.8,46.5c0-0.2,0-0.5-0.1-0.7
		c-0.2-1.1-1.2-1.9-2.4-1.9c-1.7,0-2.8,1.5-2.8,3.5c0,1.9,0.9,3.4,2.7,3.4c1.1,0,2.1-0.7,2.4-2c0.1-0.2,0.1-0.5,0.1-0.7L216.8,46.5
		L216.8,46.5z"/>
	<path class="st0" d="M222.2,47.6c0,2.3,1.5,3.2,3.1,3.2c1.2,0,1.9-0.2,2.5-0.5l0.3,1.2c-0.6,0.3-1.6,0.6-3.1,0.6
		c-2.8,0-4.5-1.9-4.5-4.6s1.6-5,4.3-5c3,0,3.8,2.6,3.8,4.3c0,0.3,0,0.6-0.1,0.8C228.6,47.6,222.2,47.6,222.2,47.6z M227.1,46.4
		c0-1.1-0.4-2.7-2.3-2.7c-1.7,0-2.4,1.6-2.6,2.7H227.1z"/>
	<path class="st0" d="M239.1,47.2c0,3.4-2.4,4.9-4.6,4.9c-2.5,0-4.4-1.8-4.4-4.7c0-3.1,2-4.9,4.6-4.9
		C237.3,42.5,239.1,44.4,239.1,47.2z M231.8,47.3c0,2,1.2,3.5,2.8,3.5c1.6,0,2.8-1.5,2.8-3.6c0-1.6-0.8-3.5-2.8-3.5
		S231.8,45.6,231.8,47.3z"/>
	<path class="st0" d="M249.1,42.7c0,0.7-0.1,1.4-0.1,2.5v5.3c0,2.1-0.4,3.4-1.3,4.2c-0.9,0.8-2.2,1.1-3.3,1.1
		c-1.1,0-2.3-0.3-3.1-0.8l0.4-1.3c0.6,0.4,1.6,0.7,2.7,0.7c1.7,0,3-0.9,3-3.2v-1h0c-0.5,0.8-1.5,1.5-2.9,1.5c-2.3,0-3.9-1.9-3.9-4.5
		c0-3.1,2-4.9,4.1-4.9c1.6,0,2.5,0.8,2.9,1.6h0l0.1-1.4L249.1,42.7L249.1,42.7z M247.4,46.3c0-0.3,0-0.5-0.1-0.8
		c-0.3-1-1.1-1.8-2.3-1.8c-1.6,0-2.7,1.3-2.7,3.5c0,1.8,0.9,3.3,2.7,3.3c1,0,2-0.7,2.3-1.7c0.1-0.3,0.1-0.6,0.1-0.9V46.3z"/>
	<path class="st0" d="M251.7,45.6c0-1.1,0-2-0.1-2.9h1.5l0.1,1.8h0.1c0.4-1.2,1.4-2,2.5-2c0.2,0,0.3,0,0.5,0.1v1.6
		c-0.2,0-0.3-0.1-0.6-0.1c-1.2,0-2,0.9-2.2,2.2c0,0.2-0.1,0.5-0.1,0.8v4.9h-1.6V45.6z"/>
	<path class="st0" d="M262.9,51.9l-0.1-1.2h-0.1c-0.5,0.7-1.5,1.4-2.8,1.4c-1.9,0-2.8-1.3-2.8-2.6c0-2.2,2-3.4,5.5-3.4v-0.2
		c0-0.8-0.2-2.1-2.1-2.1c-0.9,0-1.8,0.3-2.4,0.7l-0.4-1.1c0.8-0.5,1.9-0.8,3-0.8c2.8,0,3.5,1.9,3.5,3.8v3.4c0,0.8,0,1.6,0.1,2.2
		L262.9,51.9L262.9,51.9z M262.6,47.2c-1.8,0-3.9,0.3-3.9,2.1c0,1.1,0.7,1.6,1.6,1.6c1.2,0,2-0.8,2.2-1.5c0.1-0.2,0.1-0.4,0.1-0.5
		L262.6,47.2L262.6,47.2z"/>
	<path class="st0" d="M267,45.7c0-1.2,0-2.1-0.1-3h1.5l0.1,1.6h0c0.7-1.1,1.8-1.8,3.3-1.8c2.2,0,3.9,1.9,3.9,4.7
		c0,3.3-2,4.9-4.2,4.9c-1.2,0-2.3-0.5-2.8-1.4h0v5H267L267,45.7L267,45.7z M268.6,48.2c0,0.2,0,0.5,0.1,0.7c0.3,1.2,1.3,2,2.5,2
		c1.8,0,2.8-1.4,2.8-3.5c0-1.8-1-3.4-2.7-3.4c-1.1,0-2.2,0.8-2.5,2.1c-0.1,0.2-0.1,0.5-0.1,0.7L268.6,48.2L268.6,48.2z"/>
	<path class="st0" d="M277.8,38.4h1.7v5.7h0c0.3-0.5,0.7-0.9,1.2-1.2c0.5-0.3,1.1-0.5,1.7-0.5c1.2,0,3.2,0.8,3.2,3.9v5.5h-1.7v-5.3
		c0-1.5-0.5-2.7-2.1-2.7c-1.1,0-1.9,0.8-2.2,1.7c-0.1,0.2-0.1,0.5-0.1,0.8v5.5h-1.7L277.8,38.4L277.8,38.4z"/>
	<path class="st0" d="M289.2,47.6c0,2.3,1.5,3.2,3.1,3.2c1.2,0,1.9-0.2,2.5-0.5l0.3,1.2c-0.6,0.3-1.6,0.6-3.1,0.6
		c-2.8,0-4.5-1.9-4.5-4.6s1.6-5,4.3-5c3,0,3.8,2.6,3.8,4.3c0,0.3,0,0.6-0.1,0.8C295.7,47.6,289.2,47.6,289.2,47.6z M294.1,46.4
		c0-1.1-0.4-2.7-2.3-2.7c-1.7,0-2.4,1.6-2.6,2.7H294.1z"/>
	<path class="st0" d="M297.8,45.6c0-1.1,0-2-0.1-2.9h1.5l0.1,1.8h0.1c0.4-1.2,1.4-2,2.5-2c0.2,0,0.3,0,0.5,0.1v1.6
		c-0.2,0-0.3-0.1-0.6-0.1c-1.2,0-2,0.9-2.2,2.2c0,0.2-0.1,0.5-0.1,0.8v4.9h-1.6V45.6z"/>
	<path class="st0" d="M306.7,52.7l5.3-13.8h1.3l-5.3,13.8H306.7z"/>
	<path class="st0" d="M318.6,45.7c0-1.2,0-2.1-0.1-3h1.5l0.1,1.6h0c0.7-1.1,1.8-1.8,3.3-1.8c2.2,0,3.9,1.9,3.9,4.7
		c0,3.3-2,4.9-4.2,4.9c-1.2,0-2.3-0.5-2.8-1.4h0v5h-1.6L318.6,45.7L318.6,45.7z M320.3,48.2c0,0.2,0,0.5,0.1,0.7
		c0.3,1.2,1.3,2,2.5,2c1.8,0,2.8-1.4,2.8-3.5c0-1.8-1-3.4-2.7-3.4c-1.1,0-2.2,0.8-2.5,2.1c-0.1,0.2-0.1,0.5-0.1,0.7L320.3,48.2
		L320.3,48.2z"/>
	<path class="st0" d="M329.4,45.6c0-1.1,0-2-0.1-2.9h1.5l0.1,1.8h0.1c0.4-1.2,1.4-2,2.5-2c0.2,0,0.3,0,0.5,0.1v1.6
		c-0.2,0-0.3-0.1-0.6-0.1c-1.2,0-2,0.9-2.2,2.2c0,0.2-0.1,0.5-0.1,0.8v4.9h-1.6V45.6z"/>
	<path class="st0" d="M343.8,47.2c0,3.4-2.4,4.9-4.6,4.9c-2.5,0-4.4-1.8-4.4-4.7c0-3.1,2-4.9,4.6-4.9
		C342,42.5,343.8,44.4,343.8,47.2z M336.5,47.3c0,2,1.2,3.5,2.8,3.5c1.6,0,2.8-1.5,2.8-3.6c0-1.6-0.8-3.5-2.8-3.5
		S336.5,45.6,336.5,47.3z"/>
	<path class="st0" d="M353.8,38.4v11.1c0,0.8,0,1.8,0.1,2.4h-1.5l-0.1-1.6h0c-0.5,1-1.6,1.8-3.1,1.8c-2.2,0-3.9-1.9-3.9-4.7
		c0-3.1,1.9-4.9,4.1-4.9c1.4,0,2.4,0.7,2.8,1.4h0v-5.5L353.8,38.4L353.8,38.4z M352.2,46.5c0-0.2,0-0.5-0.1-0.7
		c-0.2-1.1-1.2-1.9-2.4-1.9c-1.7,0-2.8,1.5-2.8,3.5c0,1.9,0.9,3.4,2.7,3.4c1.1,0,2.1-0.7,2.5-2c0.1-0.2,0.1-0.5,0.1-0.7L352.2,46.5
		L352.2,46.5z"/>
	<path class="st0" d="M364.3,49.4c0,1,0,1.8,0.1,2.5h-1.5l-0.1-1.5h0c-0.4,0.7-1.4,1.7-3,1.7c-1.4,0-3.2-0.8-3.2-4v-5.4h1.7v5.1
		c0,1.8,0.5,2.9,2,2.9c1.1,0,1.9-0.8,2.2-1.5c0.1-0.2,0.1-0.5,0.1-0.8v-5.6h1.7L364.3,49.4L364.3,49.4z"/>
	<path class="st0" d="M373.6,51.6c-0.4,0.2-1.4,0.5-2.6,0.5c-2.8,0-4.6-1.9-4.6-4.7c0-2.8,1.9-4.9,4.9-4.9c1,0,1.9,0.2,2.3,0.5
		l-0.4,1.3c-0.4-0.2-1-0.4-1.9-0.4c-2.1,0-3.2,1.6-3.2,3.5c0,2.1,1.4,3.4,3.2,3.4c1,0,1.6-0.2,2-0.5L373.6,51.6z"/>
	<path class="st0" d="M377.9,40.1v2.6h2.4V44h-2.4v5c0,1.1,0.3,1.8,1.2,1.8c0.4,0,0.8-0.1,1-0.1l0.1,1.2c-0.3,0.1-0.8,0.2-1.5,0.2
		c-0.8,0-1.4-0.2-1.8-0.7c-0.5-0.5-0.6-1.3-0.6-2.4v-5h-1.4v-1.3h1.4v-2.2L377.9,40.1z"/>
	<path class="st0" d="M386.1,45.7c0-1.2,0-2.1-0.1-3h1.5l0.1,1.6h0c0.7-1.1,1.8-1.8,3.3-1.8c2.2,0,3.9,1.9,3.9,4.7
		c0,3.3-2,4.9-4.2,4.9c-1.2,0-2.3-0.5-2.8-1.4h0v5h-1.6L386.1,45.7L386.1,45.7z M387.8,48.2c0,0.2,0,0.5,0.1,0.7
		c0.3,1.2,1.3,2,2.5,2c1.8,0,2.8-1.4,2.8-3.5c0-1.8-1-3.4-2.7-3.4c-1.1,0-2.2,0.8-2.5,2.1c-0.1,0.2-0.1,0.5-0.1,0.7L387.8,48.2
		L387.8,48.2z"/>
	<path class="st0" d="M397,38.4h1.7v5.7h0c0.3-0.5,0.7-0.9,1.2-1.2c0.5-0.3,1.1-0.5,1.7-0.5c1.2,0,3.2,0.8,3.2,3.9v5.5h-1.7v-5.3
		c0-1.5-0.5-2.7-2.1-2.7c-1.1,0-1.9,0.8-2.2,1.7c-0.1,0.2-0.1,0.5-0.1,0.8v5.5H397L397,38.4L397,38.4z"/>
	<path class="st0" d="M415.8,47.2c0,3.4-2.4,4.9-4.6,4.9c-2.5,0-4.4-1.8-4.4-4.7c0-3.1,2-4.9,4.6-4.9
		C414,42.5,415.8,44.4,415.8,47.2z M408.5,47.3c0,2,1.2,3.5,2.8,3.5c1.6,0,2.8-1.5,2.8-3.6c0-1.6-0.8-3.5-2.8-3.5
		S408.5,45.6,408.5,47.3z"/>
	<path class="st0" d="M420,40.1v2.6h2.4V44H420v5c0,1.1,0.3,1.8,1.2,1.8c0.4,0,0.8-0.1,1-0.1l0.1,1.2c-0.3,0.1-0.8,0.2-1.5,0.2
		c-0.8,0-1.4-0.2-1.8-0.7c-0.5-0.5-0.6-1.3-0.6-2.4v-5h-1.4v-1.3h1.4v-2.2L420,40.1z"/>
	<path class="st0" d="M432.4,47.2c0,3.4-2.4,4.9-4.6,4.9c-2.5,0-4.4-1.8-4.4-4.7c0-3.1,2-4.9,4.6-4.9
		C430.6,42.5,432.4,44.4,432.4,47.2z M425.1,47.3c0,2,1.2,3.5,2.8,3.5c1.6,0,2.8-1.5,2.8-3.6c0-1.6-0.8-3.5-2.8-3.5
		S425.1,45.6,425.1,47.3z"/>
	<path class="st0" d="M442.5,42.7c0,0.7-0.1,1.4-0.1,2.5v5.3c0,2.1-0.4,3.4-1.3,4.2c-0.9,0.8-2.2,1.1-3.3,1.1
		c-1.1,0-2.3-0.3-3.1-0.8l0.4-1.3c0.6,0.4,1.6,0.7,2.7,0.7c1.7,0,3-0.9,3-3.2v-1h0c-0.5,0.8-1.5,1.5-2.9,1.5c-2.3,0-3.9-1.9-3.9-4.5
		c0-3.1,2-4.9,4.1-4.9c1.6,0,2.5,0.8,2.9,1.6h0l0.1-1.4L442.5,42.7L442.5,42.7z M440.7,46.3c0-0.3,0-0.5-0.1-0.8
		c-0.3-1-1.1-1.8-2.3-1.8c-1.6,0-2.7,1.3-2.7,3.5c0,1.8,0.9,3.3,2.7,3.3c1,0,2-0.7,2.3-1.7c0.1-0.3,0.1-0.6,0.1-0.9L440.7,46.3
		L440.7,46.3z"/>
	<path class="st0" d="M445,45.6c0-1.1,0-2-0.1-2.9h1.5l0.1,1.8h0.1c0.4-1.2,1.4-2,2.5-2c0.2,0,0.3,0,0.5,0.1v1.6
		c-0.2,0-0.3-0.1-0.6-0.1c-1.2,0-2,0.9-2.2,2.2c0,0.2-0.1,0.5-0.1,0.8v4.9H445V45.6z"/>
	<path class="st0" d="M456.3,51.9l-0.1-1.2h-0.1c-0.5,0.7-1.5,1.4-2.8,1.4c-1.9,0-2.8-1.3-2.8-2.6c0-2.2,2-3.4,5.5-3.4v-0.2
		c0-0.8-0.2-2.1-2.1-2.1c-0.9,0-1.8,0.3-2.4,0.7l-0.4-1.1c0.8-0.5,1.9-0.8,3-0.8c2.8,0,3.5,1.9,3.5,3.8v3.4c0,0.8,0,1.6,0.1,2.2
		L456.3,51.9L456.3,51.9z M456,47.2c-1.8,0-3.9,0.3-3.9,2.1c0,1.1,0.7,1.6,1.6,1.6c1.2,0,2-0.8,2.2-1.5c0.1-0.2,0.1-0.4,0.1-0.5
		L456,47.2L456,47.2z"/>
	<path class="st0" d="M460.3,45.7c0-1.2,0-2.1-0.1-3h1.5l0.1,1.6h0c0.7-1.1,1.8-1.8,3.3-1.8c2.2,0,3.9,1.9,3.9,4.7
		c0,3.3-2,4.9-4.2,4.9c-1.2,0-2.3-0.5-2.8-1.4h0v5h-1.6L460.3,45.7L460.3,45.7z M462,48.2c0,0.2,0,0.5,0.1,0.7c0.3,1.2,1.3,2,2.5,2
		c1.8,0,2.8-1.4,2.8-3.5c0-1.8-1-3.4-2.7-3.4c-1.1,0-2.2,0.8-2.5,2.1c-0.1,0.2-0.1,0.5-0.1,0.7L462,48.2L462,48.2z"/>
	<path class="st0" d="M471.1,38.4h1.7v5.7h0c0.3-0.5,0.7-0.9,1.2-1.2c0.5-0.3,1.1-0.5,1.7-0.5c1.2,0,3.2,0.8,3.2,3.9v5.5h-1.7v-5.3
		c0-1.5-0.5-2.7-2.1-2.7c-1.1,0-1.9,0.8-2.2,1.7c-0.1,0.2-0.1,0.5-0.1,0.8v5.5h-1.7L471.1,38.4L471.1,38.4z"/>
	<path class="st0" d="M482,42.7l2,5.4c0.2,0.6,0.4,1.3,0.6,1.9h0c0.2-0.5,0.4-1.2,0.6-1.9l1.8-5.4h1.8l-2.5,6.5
		c-1.2,3.2-2,4.8-3.1,5.8c-0.8,0.7-1.6,1-2,1.1l-0.4-1.4c0.4-0.1,1-0.4,1.5-0.8c0.5-0.4,1-1,1.4-1.9c0.1-0.2,0.1-0.3,0.1-0.4
		c0-0.1,0-0.2-0.1-0.4l-3.4-8.5L482,42.7L482,42.7z"/>
</g>
</svg>
